<?xml version="1.0" encoding="UTF-8"?>
<svg xmlns="http://www.w3.org/2000/svg" version="1.1" viewBox="0 0 612 624.91">
  <defs>
    <style>
      .cls-1 {
        fill: #090808;
      }

      .cls-1, .cls-2 {
        fill-rule: evenodd;
      }

      .cls-2, .cls-3 {
        fill: #010101;
      }
    </style>
  </defs>
  <!-- Generator: Adobe Illustrator 28.6.0, SVG Export Plug-In . SVG Version: 1.2.0 Build 709)  -->
  <g>
    <g id="Layer_1">
      <g>
        <path class="cls-1" d="M402.05,309.26c-.07.4-.12.62-.12.62,0,0,.04-.22.12-.62ZM313.34,427.99l-.02.17s-.11.04.02-.17ZM228.8,374.96c6.5.14,17.56,1.91,24.52,10.09,8.24,9.67,24.71,18.98,32.23,19.7,7.52.72,25.13-2.21,32.3-16.18,7.16-13.97,27.57-55.15,26.14-65.89-1.43-10.74-.36-27.93-10.74-40.82-10.39-12.89-24.22-23.65-27.66-32.82-3.44-9.17-4.87-23.49-.86-27.5,4.01-4.01,47.89-19.41,47.89-19.41,0,0-46.7,9.17-58.16,10.03-11.46.86-67.32,2.01-81.08,0-13.75-2.01-21.65-6.91-29.1-19.23-7.45-12.32-1.52-39.66-1.52-39.66l5.26,16.12c-.36-16.75,2.89-33.11,14.55-48.52,0,0-4.76,22.72,53.54,6.79,33.05-9.03,81.92-9.87,111.28,4.1,29.37,13.97,36.05,28.02,36.05,28.02l-2.02-9.17s12.47,10.82,17.6,26.04c5.13,15.22,4.04,19.07,4.04,19.07,0,0,6.95,8.29,7.69,18.55l.73,10.27-3.67-6.05s-3.17,25.55-11.77,43.1c-7.88,16.08-13.16,43.26-13.99,47.7.59-3.39,3.07-19.68-3.34-24.81-7.16-5.73-20.41-10.03-29.72,1.43-9.31,11.46-13.97,25.43-14.33,32.59-.36,7.16-3.82,44.36-2.39,55.82,1.43,11.46,1.42,11.31,1.42,11.31l-4.87-9.74s2.58,8.88.86,15.47c-1.72,6.59-14.19,15.52-25.94,26.41-8.34,7.73-10.09,9.73-10.41,10.24l.84-7.57s-10.03,12.89-22.92,22.35c-12.89,9.45-30.94,16.62-44.12,15.47-13.18-1.15-22.92-5.16-27.5-14.61-4.58-9.45-5.96-26.63-6.25-30.44-.29-3.81-3.04-5.58-3.04-5.58,0,0-2.87-3.94-6.09-13.61-3.22-9.67-2.09-10.85-1.67-14.26.25-2.01,4.17-6.15,4.17-6.15,0,0-5.34-3.48-9.11-5.86-5.07-3.19-3.25-8.97-1.38-17.35,2.27-10.18,17.36-40.96,17.36-40.96,0,0-11.66,30-15.04,41.27-3.38,11.27-.43,12.76,5.21,16.52,3.39,2.26,8.81,4.7,12.58,6.28v-.07s4.57,1.98,10.15-.12l5.58-2.11s-1.56,2.16-3.3,3.77ZM214.6,395.3s-3.08,6.46-1.95,8.92c1.13,2.46,3.69,3.9,7.49,4.31,3.79.41,14.49,5.67,16.19,7.25,1.71,1.58,1.18,5.71,1.18,5.71,0,0-.95,7.98,1.76,9.29,2.71,1.31,11.69,2.93,17.62,1.81,5.93-1.12,10.73-7.37,10.73-7.37l5.13,2.73s.96-6.25-5.93-11.7c-6.89-5.45-12.49-17.46-18.75-20.03-6.25-2.56-23.39-4.65-29.96-5.77-6.57-1.12-8.81-.96-8.81-.96,0,0-.37.84,1.6,2.48,1.97,1.64,3.69,3.34,3.69,3.34ZM222.11,295.39s.9-5.71,7.66-7.51c6.76-1.8,24.63-6.46,28.84-6.31,4.21.15,19.61,5.8,27.72,8.8l8.11,3s-13.37-1.05-23.58-1.65c-10.21-.6-21.63-.75-29.29,2.55-7.66,3.3-13.52,6.61-15.62,5.1-2.1-1.5-3.84-4-3.84-4ZM208.66,296.16c2.32,2.63,5.26,12.73,5.26,12.73,0,0-3.11-8.68-6.8-11.43-2.97-2.22-8.01-3.88-9.25-4.47-2.76-1.32-5.79-3.45-6.99-5.61-1.2-2.16,1.92-9.85,1.92-9.85,0,0,1.8,4.69,5.05,9.49,3.24,4.81,8.14,6.09,10.81,9.13"/>
        <path class="cls-2" d="M151.79,512.22l14.93,9.9-7.12,1.36-9.1,13.72c.43.41.96.85,1.59,1.33l9.01-13.6,5.74-1.14.26.99-5.42,1.07-8.78,13.25.99.79c1.53,1.23,3.06,2.35,4.59,3.36,2.2,1.46,4.17,2.61,5.9,3.45l9.68-14.61-1.52-6.13,14.68,9.73-7.18,1.32-21.94,33.1,1.57,5.98-14.61-9.68,6.82-.83,8.93-13.47c-2.06-.76-4.03-1.76-5.92-3.01-1.78-1.18-3.56-2.5-5.34-3.95l-.42-.33-8.91,13.44,1.24,9.51-16.42-10.89-.26-1.4,15.5,10.27-1.18-7.6,9.68-14.61.88.67c2.65,2.06,4.61,3.51,5.86,4.34,2.03,1.35,3.98,2.24,5.85,2.69l.76-1.14c-2.19-1.02-4.6-2.41-7.25-4.17-1.42-.94-2.44-1.66-3.05-2.16l-3.02-2.41c-.11-.1-.34-.29-.69-.55l-10.44,15.76,1.79,6.13-14.68-9.73,6.72-.9,9.2-13.88c-1.78-1.18-3.66-1.42-5.65-.72l-.46-.76c2.25-.73,4.46-.5,6.63.69l.78-1.18c-2.37-1.57-4.84-1.91-7.41-1.03l-.26-.63c3.27-2.22,6.5-2.67,9.68-1.36l9.47-14.3-1.69-6.7ZM187.37,538.36l-5.32,1-21.48,32.4,1.27,9.53-16.49-10.93-.23-1.38,15.47,10.25-1.08-7.62,21.94-33.1,5.84-1.16.06,1ZM227.03,552.62l-5.3,2.81v17.75s1.71-.25,1.71-.25l.02-16.04,5.42-2.93.78.74-5.17,2.81-.02,15.18c.37-.11.58-.17.65-.2l1.55-.55c.93-.3,1.53-.54,1.81-.7-.4,2.94-.37,5.73.11,8.35-.67-.31-1.16-.52-1.47-.64-2.26-.85-4.04-1.12-5.36-.8l-.15,19.94,3.79,6.15-18.01-6.79,6.48-2.28-.03-11.91c-3.61,1.65-6.57,3.4-8.87,5.25l-.74-.52c2.28-1.8,5.35-3.62,9.22-5.44l.42-.25-.09-1.82c-3.72,1.29-7.09,3.14-10.12,5.55l-.25-1.28c-.49-2.44-1.23-5.28-2.2-8.53l-.19-.56c-3.36,3.38-5.53,6.34-6.48,8.88-.56,1.5-.79,2.86-.67,4.09.12,1.23.7,3.42,1.74,6.58.09.28.22.71.41,1.29l-19.26-7.26-.35-1.23,18.15,6.84-.33-.98c-.85-2.49-1.32-4.36-1.41-5.6-.09-1.24.14-2.58.68-4,.91-2.43,3.26-5.67,7.05-9.73l-.95-2.23c-.6.64-1.41,1.61-2.44,2.91l-2.55,3.19c-1.38,1.71-2.3,3.2-2.79,4.49-.5,1.33-.69,2.52-.57,3.57.12,1.05.62,2.61,1.5,4.68.09.2.22.5.39.92l-17.83-6.72c4.06-.48,7.65-1.83,10.75-4.05,3.1-2.22,6.8-6.07,11.09-11.54l.33-.45c-.86-1.54-2.43-2.88-4.72-4.02,2.04-1.46,3.82-3.11,5.33-4.95.22.43.34.7.39.8l1.04,2.1c.35.73.8,1.51,1.36,2.34l1.23-1.33-.29-.52c-.79-1.5-1.47-2.72-2.04-3.66l-.23-.37.87-.57c.95,1.31,1.8,2.73,2.55,4.26l9.88-11.51-2.25-5.49,16.44,6.2ZM213.91,560.74l-7.82,8.86c.12.32.19.51.19.56l.84,2.19c.46,1.15.96,2.86,1.49,5.12l.16.67c1.51-.9,3.2-1.71,5.08-2.45l.06-14.97ZM213.86,556l-11.32,12.84c1.11,2.54,1.97,4.95,2.6,7.25l.78,2.9s.08.23.18.6c.3-.13.46-.22.51-.26l.73-.42c.11-.07.3-.17.57-.32-.69-3.2-1.76-6.24-3.19-9.15l9.11-10.33.04-3.12ZM230.97,574.14c-.28,2.34-.08,5.77.6,10.29-.49-.27-.78-.42-.85-.44l-2.8-1.34c-1.26-.61-2.19-1.03-2.78-1.25-.1-.04-.34-.11-.73-.23v18.04s5.31,10.02,5.31,10.02l-20.65-7.78-.32-1.22,18.94,7.14-4.28-8.09-.02-19.19c.89.09,1.86.33,2.9.73,1.28.48,2.67,1.13,4.16,1.93l-.13-.95c-.46-3.38-.53-6.3-.2-8.75l.85,1.09ZM254.12,560.41l17.79,3.12-5.93,4.22-6.86,39.08,4.03,4.81-17.49-3.07,5.97-3.4,6.88-39.15-4.39-5.61ZM273.22,565.97l-4.49,3.12-6.72,38.25,5.07,8.16-19.52-3.43-.76-1.18,18.24,3.2-4.15-6.57,6.84-38.96,4.98-3.46.51.86ZM284.6,570.6c6.04-3.45,12.53-5.16,19.46-5.13,5.38.03,9.82,1.22,13.3,3.57,3.48,2.35,5.21,5.34,5.2,8.94-.01,2.95-1.17,5.55-3.47,7.82-2.3,2.26-5.43,3.89-9.4,4.89,1.73,4.84,4.09,9.55,7.08,14.14,2.99,4.59,5.99,8.11,9,10.56l-.57.19c-3.79,1.28-7.51,3.09-11.16,5.43l-.57.38-.18-1.22c-1.58-9.84-3.81-18.18-6.7-25.03l-.15-.38c-1.76.8-4.11,1.44-7.06,1.91l-.31.04-.07,14.25,6.67,7.2-19.7-.09-.6-1.03,18.14.09-5.5-5.89.07-15.36.8-.11c2.9-.29,5.33-.85,7.29-1.68-.15-.31-.24-.5-.26-.57l-.38-1.11c-.03-.08-.09-.23-.19-.46-1.58.45-4.55.93-8.92,1.44l-.42.07-.08,17,4.32,4.56-16.84-.08,4.98-4.51.06-12.8-.31.04c-1.47.32-2.81.69-4.01,1.09l-.31.11-.34-.76c1.12-.43,2-.71,2.63-.86l2.02-.49.3-.07v-1.98c-1.49,0-3.36.31-5.6.97l-.42.15c.05-.36.31-1.18.77-2.47.05-.1.23-.67.54-1.71l.11-.34c1.14.08,2.03.12,2.67.13.69,0,1.32-.03,1.9-.11l.09-18.75c-1.17-.72-2.37-1.32-3.61-1.81l-.31-.12ZM296.12,569.66l-.1,20.54c.74,0,1.43-.06,2.1-.18l.09-18.75c1.4-.37,3.08-.56,5.04-.55,4.95.02,8.31,1.67,10.08,4.93-1.87-1.53-3.52-2.59-4.94-3.17s-3.12-.87-5.1-.88c-1.55,0-2.91.14-4.08.44l-.09,17.99.42-.07c5.01-.89,8.73-2.31,11.17-4.27,2.44-1.96,3.66-4.51,3.68-7.66.01-2.82-1.07-5.16-3.25-7.01-2.18-1.85-4.93-2.79-8.26-2.8-2.67-.01-4.92.47-6.75,1.45ZM314.42,592.61c1.58,5.24,4.38,10.38,8.43,15.4,2.53,3.14,5.73,5.96,9.6,8.47-5.83,1.52-11.3,3.86-16.42,7.01l-.34.23-.76-.61c4.87-3.15,10.05-5.47,15.54-6.94-7.3-4.91-13.01-12.74-17.15-23.48l-.23-.65c7.79-2.91,11.7-7.39,11.72-13.44.01-2.49-.98-5.21-2.97-8.17,2.55,2.35,3.82,5.33,3.81,8.94-.03,5.84-3.77,10.26-11.23,13.25ZM375.81,559.05l-.27.79c-1.48,4.35-2.66,8.65-3.54,12.89l-.17.93-.54-.17c-1.32-3.68-3.24-6.42-5.77-8.23-2.53-1.81-5.28-2.42-8.24-1.84-3.17.62-5.54,2.52-7.12,5.7-1.99,3.96-2.18,10.06-.57,18.29,1.39,7.08,3.7,12.39,6.94,15.92,3.24,3.53,7.04,4.87,11.41,4.02,3.49-.68,6.05-2.4,7.67-5.13,1.63-2.74,2.21-6.32,1.76-10.73-.1-1.07.21-1.67.96-1.82.98-.19,1.62.52,1.94,2.15.47,2.42.41,5.03-.18,7.84-1.24,5.94-5.49,9.62-12.75,11.04-6.48,1.27-12.08,0-16.78-3.8-4.71-3.8-7.82-9.58-9.34-17.34-1.4-7.16-.6-13.54,2.42-19.15,3.02-5.61,7.47-9,13.35-10.15,2.79-.55,6.11-.48,9.94.19,2.01.36,3.63.42,4.85.18,1.32-.26,2.44-.85,3.34-1.78l.67.22ZM366.23,567.64c-2.63-1.38-4.95-1.87-6.97-1.47-6.46,1.27-8.48,8.06-6.07,20.37,1.1,5.61,2.76,10.13,4.99,13.57,2.23,3.43,4.81,5.43,7.74,6l.07.37c-3.06-.02-5.85-1.82-8.38-5.41-2.53-3.58-4.38-8.38-5.56-14.39-2.53-12.89-.25-20.03,6.83-21.42,2.39-.47,4.81.16,7.24,1.88l.1.49ZM383.45,590.95c.81,6.26,0,11.31-2.41,15.13s-6.37,6.28-11.86,7.35c-4.16.81-8.29.29-12.38-1.57l-.06-.3c3.6,1.47,7.66,1.76,12.17.88,4.94-.97,8.65-3.34,11.15-7.12,1.22-1.84,2-3.8,2.35-5.86.35-2.06.34-4.7-.03-7.91l-.09-.87,1.18.27ZM378.89,560.31l-.27.79c-1.81,5.17-3.15,9.82-4.03,13.95l-1.1-.29.23-1.02c.74-2.86,1.41-5.25,2.02-7.15l1.95-5.9.24-.75.97.36ZM424.78,538.86l-4.21,7.65,9.44,22.74c1.73,4.18,2.84,7.24,3.33,9.18.49,1.94.58,3.67.27,5.17-.77,3.84-4.07,6.97-9.89,9.39-6.15,2.55-11.07,2.83-14.75.84-2.93-1.56-5.79-5.7-8.58-12.41l-9.7-23.37-6.57-2.31,16.61-6.9-2.84,6.67,9.56,23.02,2.32,5.39c1.45,3.5,3.21,5.68,5.27,6.54,2.06.86,4.82.58,8.27-.85,3.8-1.58,5.95-3.78,6.46-6.6.4-2.29-.63-6.39-3.1-12.33l-9.31-22.83-7.58-2.75,14.99-6.23ZM426.97,540.76l-3.13,5.96,9.07,21.86c2.97,7.16,4.35,12.06,4.13,14.71-.47,5.37-4.04,9.44-10.73,12.22-5.77,2.4-10.71,2.76-14.82,1.08l.34.02,1.53.19c3.59.49,7.65-.2,12.17-2.08,6.48-2.69,9.92-6.51,10.34-11.47.21-2.67-1.07-7.34-3.83-14.01l-9.35-22.53,3.46-6.47.83.52ZM403.01,550.13l-2,4.92,10.86,26.15.97,2.44,2.95,4.02c.91.67,2.38,1.32,4.41,1.97l.2.29c-2.3.02-4.15-.58-5.53-1.79-1.38-1.21-2.74-3.42-4.06-6.61l-10.96-26.4,2.37-5.52.8.53ZM466.75,511.51c.05.49.09.81.11.98l.4,5.24c.17,1.85.61,3.99,1.34,6.44l.04.2h-.47s-.37-.36-.37-.36c-2.23-1.99-4.22-3.08-5.97-3.25-1.75-.17-3.79.52-6.11,2.08-.95.64-1.87,1.32-2.76,2.04l-.38.25,23.03,34.3,6.05.94-14.46,9.71,1.95-6.68-21.14-31.48-2.27,1.48c-2.17,1.46-3.43,2.92-3.77,4.39-.34,1.47.12,3.34,1.4,5.6l-.82.55c-1.42-2.62-1.94-4.77-1.55-6.44s1.79-3.31,4.2-4.93l1.92-1.24.35-.23-1.04-1.55c-1.16.6-2.23,1.22-3.2,1.87-2.72,1.83-4.31,3.7-4.77,5.61-.46,1.92.13,4.23,1.78,6.95l-.38.25c-2.87-2.32-6.47-4.65-10.79-6.98l-.4-.19,38.1-25.58ZM470.08,512.16c-.21,2.83.33,6.94,1.61,12.32l.09.4-1.1-.13-.1-.35c-1.37-5.41-1.9-9.46-1.59-12.15l.03-.3,1.06.21ZM464.95,522.77c-2.33.03-4.58.78-6.76,2.24-.48.33-.97.7-1.46,1.11l21.48,31.71,9.03,2.57-16.17,10.86-1.3-.37,15.16-10.18-7.49-1.99-22.14-32.97,1.69-1.18c2.04-1.37,3.6-2.18,4.68-2.43,1.07-.25,2.17-.04,3.28.62"/>
        <path class="cls-2" d="M11.19,236.55c-1.98-7.9-1.57-15.85,1.23-23.83,2.03-5.8,5-10.08,8.89-12.83,3.89-2.75,7.9-3.41,12.02-1.96,5.5,1.93,8.07,6.4,7.7,13.42l.45.16c.39-.59.88-1.3,1.47-2.12.35-3.24-.25-6.1-1.81-8.57-1.56-2.47-3.86-4.24-6.91-5.31-3.83-1.34-7.78-.96-11.86,1.16l-.24-.09.52-.32c3.96-2.58,8.08-3.12,12.34-1.62,5.88,2.06,8.91,6.55,9.09,13.46,2.14-2.22,4.59-3.67,7.34-4.35,2.75-.68,5.53-.53,8.34.45,4.02,1.41,6.72,4,8.12,7.76,1.39,3.76,1.24,8.07-.47,12.92l-10.16,28.97-2.81-7.26-17.52-6.14c-.56,1.59-1.05,3.51-1.47,5.75l-1.29-.09c.6-2.49,1.17-4.5,1.71-6.03l-2.14-.76-.35,1.01c-.53,1.51-1.09,3.45-1.68,5.82l-3.26-3.14.27-.63c.45-1.02.77-1.81.96-2.35.28-.81.55-1.43.79-1.86l-15.21-5.34-4.03,3.72ZM15.03,223.67l18.25,6.4c.08-.31.13-.51.17-.62l.3-.71.24-.69-16.55-5.81c-.27-2.7-.01-5.15.76-7.37.89-2.53,2.05-4.37,3.48-5.52,1.43-1.15,3.44-1.85,6.01-2.1l-1.04.9c-3.76.96-6.29,3.31-7.61,7.06-.74,2.11-.81,4.2-.21,6.29l15.54,5.45.6-1.7c1.81-5.15,2.3-9.29,1.47-12.41-.83-3.12-3.01-5.31-6.54-6.54-3.1-1.09-5.97-.92-8.61.5s-4.55,3.83-5.74,7.23c-1.05,2.99-1.22,6.21-.52,9.63ZM36.59,231.23l22.29,7.82.71-2.03-19.87-6.97c.54-1.96.95-3.36,1.25-4.2,1.57-4.48,3.13-7.58,4.67-9.29s3.69-2.75,6.46-3.12l-.17.48c-2.32.67-4.19,1.88-5.61,3.62-1.41,1.74-2.8,4.55-4.15,8.4l-1.08,3.35,18.89,6.63.45-1.29,1.86-5.94c2.13-7.8-.23-12.89-7.08-15.3-4.29-1.5-7.66-1.28-10.12.68s-4.89,6.37-7.31,13.25c-.24.68-.63,1.97-1.19,3.9ZM50.05,201.93c3.25-2.1,7.15-2.35,11.71-.76,4.59,1.61,7.81,4.54,9.68,8.81,1.81,4.15,1.66,9.26-.47,15.33l-9.65,27.51-1.33.31,8.96-25.53c1.95-5.56,2.79-9.76,2.52-12.61-.62-6.34-4.08-10.61-10.36-12.81-3.51-1.23-7.12-1.1-10.85.37l-.19-.61ZM62.61,122.7l1.39,6.6,19.18,5.55.27-1.94-17.33-5.03-1.47-6.77,1.04-.61,1.43,6.47,16.41,4.76c0-.43,0-.68-.02-.76l-.12-1.85c-.04-1.1-.1-1.82-.19-2.18,3.06,1.36,6.08,2.18,9.06,2.49-.54.63-.92,1.09-1.15,1.39-1.62,2.18-2.47,4.02-2.54,5.54l21.51,6.38,7.83-2.18-12.96,17.35-.44-7.72-12.88-3.68c.66,4.42,1.63,8.16,2.91,11.22l-.8.64c-1.24-3.03-2.24-6.92-3.01-11.66l-.14-.53-2-.48c.23,4.42,1.18,8.64,2.85,12.67l-1.46-.13c-2.79-.23-6.09-.32-9.91-.28l-.67.03c2.6,4.69,5.12,7.95,7.57,9.78,1.44,1.08,2.85,1.74,4.21,1.99,1.36.25,3.91.31,7.65.18.33,0,.83-.02,1.53-.04l-13.85,18.55h-1.44s13.06-17.49,13.06-17.49l-1.16.04c-2.96.14-5.13.07-6.5-.22-1.37-.29-2.74-.95-4.12-1.98-2.34-1.75-5.11-5.3-8.31-10.65l-2.71.33c.51.85,1.3,2.03,2.38,3.55l2.66,3.75c1.42,2.02,2.74,3.49,3.98,4.42,1.28.96,2.51,1.53,3.68,1.73,1.17.2,3.01.15,5.52-.16.24-.04.61-.08,1.11-.13l-12.83,17.18c.75-4.54.41-8.84-1.02-12.89-1.43-4.05-4.44-9.25-9.01-15.59l-.38-.5c-1.94.45-3.88,1.73-5.82,3.85-.94-2.66-2.17-5.1-3.69-7.31.54-.1.87-.16.99-.17l2.6-.47c.9-.15,1.88-.4,2.96-.74l-1.05-1.75-.65.16c-1.86.39-3.39.75-4.59,1.06l-.47.13-.34-1.11c1.71-.61,3.51-1.09,5.4-1.43l-9.36-14.27-6.64.72,11.83-15.84ZM67.3,139.42l7.14,11.22c.38-.03.61-.05.67-.04l2.63-.23c1.39-.14,3.39-.14,6-.01l.77.04c-.5-1.91-.85-3.99-1.06-6.25l-16.16-4.74ZM62.16,137.99l10.35,16.24c3.09-.41,5.97-.59,8.65-.55l3.38.06s.27,0,.7-.01c-.05-.36-.09-.57-.12-.62l-.23-.92c-.04-.14-.09-.38-.16-.71-3.67-.24-7.3-.04-10.88.6l-8.33-13.07-3.36-1.02ZM87.11,125.16c2.44,1.03,6.21,1.89,11.31,2.56-.45.45-.69.71-.75.78l-2.32,2.6c-1.05,1.18-1.8,2.05-2.22,2.62-.07.09-.23.33-.48.71l19.5,5.63,12.49-2.6-14.86,19.89-1.41-.04,13.62-18.24-10.08,2.1-20.75-5.97c.38-.93.94-1.9,1.69-2.91.92-1.24,2.05-2.53,3.39-3.89l-1.06-.15c-3.8-.55-6.97-1.39-9.52-2.51l1.45-.58ZM106.18,83.07c3.17-7.15,7.91-13.03,14.22-17.62,4.9-3.57,9.71-5.45,14.44-5.63,4.72-.19,8.28,1.36,10.67,4.64,1.95,2.68,2.64,5.81,2.07,9.39-.57,3.58-2.32,7.15-5.26,10.7,4.79,3.23,10.07,5.92,15.84,8.09,5.77,2.16,10.83,3.36,15.2,3.57l-.39.55c-2.58,3.69-4.74,7.81-6.48,12.36l-.27.73-.98-.98c-7.99-7.87-15.58-13.94-22.76-18.22l-.39-.25c-1.06,1.9-2.76,4.05-5.12,6.44l-.25.24,9.44,12.96,10.85,2.07-17.92,13.05-1.24-.53,16.5-12.02-8.91-1.67-10.17-13.97.65-.63c2.43-2.2,4.26-4.32,5.48-6.38-.34-.18-.55-.29-.62-.34l-1.08-.75c-.07-.05-.23-.15-.48-.29-1.13,1.46-3.5,3.88-7.13,7.26l-.33.35,11.26,15.46,6.96,1.25-15.32,11.16,1.5-7.4-8.48-11.65-.25.24c-1.12,1.28-2.09,2.5-2.91,3.66l-.2.3-.82-.46c.73-1.13,1.33-1.98,1.81-2.54l1.51-1.79.23-.27-1.31-1.8c-1.36.99-2.84,2.53-4.44,4.61l-.28.42c-.19-.36-.51-1.28-.95-2.76-.02-.13-.24-.76-.65-1.91l-.12-.39c1.09-.69,1.92-1.24,2.5-1.66.62-.46,1.18-.91,1.66-1.37l-12.42-17.05c-1.53.12-3.03.38-4.48.77l-.35.1ZM115.99,74.54l13.61,18.68c.67-.49,1.26-1.01,1.78-1.56l-12.42-17.05c1.02-1.27,2.42-2.56,4.2-3.85,4.51-3.28,8.64-4.03,12.42-2.25-2.72-.14-4.91,0-6.59.42-1.67.42-3.41,1.29-5.21,2.6-1.41,1.02-2.55,2.06-3.41,3.11l11.92,16.36.33-.35c3.95-4.15,6.37-7.92,7.27-11.32.9-3.4.31-6.53-1.78-9.39-1.87-2.56-4.41-3.96-7.61-4.19-3.21-.23-6.32.76-9.35,2.96-2.43,1.77-4.14,3.71-5.15,5.82ZM147.87,83.14c4.92,3.7,10.89,6.48,17.9,8.34,4.38,1.16,9.16,1.58,14.35,1.27-4.26,5.26-7.66,11.03-10.21,17.3l-.16.43-1.1-.05c2.31-6.11,5.46-11.66,9.46-16.65-9.89.41-20.29-2.87-31.2-9.85l-.64-.44c5.12-7.83,5.67-14.5,1.67-19.99-1.65-2.26-4.36-4.07-8.14-5.42,3.88.42,7.02,2.28,9.41,5.56,3.87,5.31,3.42,11.81-1.34,19.49ZM175.21,38.85c4.74-6.63,11.06-11.46,18.96-14.49,5.74-2.2,10.92-2.71,15.53-1.53,4.62,1.18,7.71,3.81,9.28,7.9,2.09,5.44.34,10.29-5.25,14.55l.17.44c.7-.09,1.56-.17,2.57-.25,2.69-1.83,4.48-4.14,5.36-6.92.87-2.79.73-5.69-.43-8.7-1.46-3.79-4.31-6.55-8.56-8.29l-.09-.24.58.19c4.53,1.35,7.6,4.14,9.22,8.35,2.23,5.82.77,11.03-4.37,15.64,3.07.2,5.76,1.12,8.07,2.78,2.3,1.66,3.99,3.87,5.06,6.65,1.53,3.97,1.31,7.71-.66,11.21-1.97,3.49-5.35,6.16-10.15,8.01l-28.66,11.01,3.71-6.85-6.66-17.33c-1.58.6-3.36,1.47-5.34,2.6l-.77-1.04c2.28-1.15,4.19-2.02,5.71-2.6l-.82-2.12-1,.38c-1.49.58-3.33,1.4-5.52,2.49l.29-4.52.66-.21c1.07-.32,1.88-.58,2.41-.79.8-.31,1.44-.51,1.93-.6l-5.78-15.05-5.44-.67ZM187.51,33.44l6.93,18.05c.28-.14.48-.23.59-.27l.74-.24.68-.26-6.29-16.37c1.88-1.95,3.92-3.34,6.11-4.18,2.51-.96,4.66-1.27,6.47-.92,1.8.35,3.63,1.42,5.49,3.22l-1.37-.21c-3.16-2.25-6.59-2.66-10.3-1.24-2.08.8-3.72,2.1-4.93,3.91l5.9,15.37,1.68-.65c5.1-1.96,8.57-4.26,10.41-6.91,1.84-2.65,2.1-5.73.75-9.23-1.18-3.07-3.16-5.15-5.95-6.23-2.79-1.09-5.87-.99-9.23.3-2.96,1.14-5.52,3.09-7.67,5.84ZM195.7,54.78l8.47,22.06,2-.77-7.55-19.65c1.84-.86,3.18-1.45,4.01-1.77,4.43-1.7,7.8-2.52,10.1-2.46,2.31.06,4.49,1.03,6.56,2.9l-.48.19c-2.02-1.34-4.15-1.98-6.39-1.93s-5.28.81-9.09,2.27l-3.25,1.34,7.18,18.69,1.28-.49,5.73-2.43c7.32-3.42,9.68-8.52,7.08-15.3-1.63-4.24-3.98-6.67-7.07-7.28-3.08-.61-8.02.39-14.83,3.01-.67.26-1.91.8-3.74,1.62ZM226.76,46.07c3.7,1.12,6.42,3.93,8.15,8.44,1.74,4.54,1.59,8.89-.45,13.08-1.99,4.07-5.98,7.26-11.99,9.57l-27.22,10.45-1.1-.82,25.26-9.7c5.5-2.11,9.24-4.19,11.24-6.25,4.43-4.58,5.44-9.97,3.06-16.19-1.33-3.47-3.77-6.15-7.31-8.03l.34-.54ZM300.78,3.68l-.61.87c-2.61,3.81-4.57,8.09-5.89,12.85-.34-.63-.59-1.1-.76-1.4-1.86-3.29-3.72-5.35-5.6-6.2-1.88-.85-5.14-1.07-9.78-.68-2.14.18-4.69.47-7.67.86l1.66,19.65,2.73-.23-1.46-17.39c2.15-.38,4.2-.66,6.17-.82,3.62-.3,6.31-.14,8.09.48,1.77.63,3.42,1.99,4.95,4.1-.42-.25-.73-.44-.91-.57-2.46-1.63-4.22-2.57-5.27-2.83-1.05-.25-3.09-.26-6.11,0-.91.08-2.53.27-4.86.58l-.89.12,1.37,16.23,7.86-.66,4.88-8.03,1.55,18.42-6.11-6.67-11.66.98,2.02,23.97,2.74-.23-1.85-21.96,9.27-.78,1.2,1.02-9.31.78,1.76,20.85c5.81-.49,9.91-1.25,12.28-2.28,2.38-1.03,4.17-2.82,5.36-5.36l1.94-4.08c.07-.18.22-.51.43-.98,1.01,3.07,2.14,5.5,3.39,7.29,1.25,1.79,3.25,3.83,6,6.12l-47.89,4.03,6.08-5.5-1.6-19.06c-2.37.49-4.47,1.41-6.31,2.77l-.68-.85c1.63-1.4,3.93-2.41,6.89-3.03l-.17-2.01c-.49-.01-.83-.01-1.03,0-2.9.25-5.46,1.53-7.68,3.87.93-4.67,3.73-7.2,8.4-7.59l-1.53-18.24-6.93-4.58,45.59-3.84ZM303.08,6.49l-.27.41c-3.08,4.96-5.07,9.08-5.97,12.33l-.8-.83c1.53-4.58,3.66-8.83,6.37-12.76l.68.85ZM291.72,21.78l1.59,18.88-1.11-.46-1.59-18.88,1.11.47ZM312.55,57.55l-1.9,4.03-46.65,3.93-.78-1.1,46.79-3.94,1.23-2.81c-4.42-3.44-7.65-7.24-9.7-11.4l1.41.4c1.88,3.51,4.83,6.93,8.87,10.27l.74.62h0ZM339.27,10.07c7.39-2.56,14.92-3.1,22.58-1.62,5.95,1.15,10.6,3.39,13.97,6.72,3.36,3.32,4.66,6.98,3.88,10.97-.63,3.25-2.45,5.89-5.46,7.92-3.01,2.03-6.82,3.18-11.41,3.45.91,5.71,2.54,11.41,4.89,17.1,2.35,5.69,4.94,10.21,7.75,13.55l-.67.09c-4.46.62-8.94,1.85-13.46,3.69l-.71.3.05-1.39c.3-11.21-.43-20.9-2.2-29.07l-.09-.45c-2.11.53-4.84.74-8.2.64l-.35-.02-3.04,15.74,5.88,9.35-21.77-4.2-.46-1.26,20.04,3.87-4.85-7.66,3.28-16.97.91.04c3.26.28,6.07.17,8.41-.34-.1-.37-.16-.6-.17-.69l-.19-1.3c0-.09-.05-.27-.11-.54-1.84.17-5.23.08-10.17-.26h-.48s-3.62,18.77-3.62,18.77l3.83,5.94-18.61-3.59,6.44-3.96,2.73-14.15-.34-.02c-1.7.05-3.25.17-4.66.37l-.36.06-.22-.91c1.33-.24,2.36-.38,3.09-.41l2.34-.12.35-.02.42-2.19c-1.66-.32-3.79-.35-6.4-.1l-.5.08c.13-.38.59-1.24,1.37-2.57.08-.1.4-.7.96-1.78l.2-.35c1.25.33,2.22.56,2.92.69.76.15,1.47.24,2.13.28l4-20.71c-1.14-1.03-2.34-1.95-3.62-2.75l-.31-.19ZM352.2,11.43l-4.38,22.69c.81.16,1.6.24,2.36.24l4-20.71c1.62-.12,3.52.02,5.68.44,5.47,1.06,8.85,3.57,10.12,7.54-1.75-2.09-3.35-3.59-4.8-4.53-1.45-.93-3.27-1.61-5.46-2.03-1.71-.33-3.25-.45-4.6-.37l-3.83,19.87h.48c5.73.06,10.14-.74,13.24-2.4,3.1-1.66,4.99-4.23,5.66-7.71.6-3.12-.11-5.92-2.13-8.43-2.02-2.5-4.87-4.1-8.55-4.81-2.95-.57-5.53-.5-7.77.2ZM367.65,40.61c.65,6.12,2.69,12.38,6.11,18.78,2.14,3.99,5.09,7.78,8.85,11.36-6.76.47-13.29,1.92-19.61,4.34l-.43.18-.71-.84c6.04-2.47,12.25-3.95,18.63-4.44-7.04-6.95-11.73-16.8-14.08-29.53l-.11-.76c9.22-1.6,14.47-5.74,15.76-12.42.53-2.75,0-5.97-1.59-9.65,2.34,3.13,3.12,6.69,2.35,10.67-1.25,6.45-6.3,10.56-15.17,12.31ZM455.62,42.29c-2.2,1.18-4.17,2.55-5.89,4.14-3.41,3.13-5.58,5.01-6.51,5.65l-.3.14c.03-.33.06-.59.08-.77.38-2.67.55-4.56.51-5.69-.04-1.12-.32-2.32-.87-3.58-1.36-3.21-3.54-5.52-6.54-6.94-2.77-1.3-5.43-1.62-7.99-.96-2.56.67-4.39,2.17-5.49,4.49-2.05,4.34-.18,8.85,5.61,13.51l5.8,4.68c8.27,6.66,10.6,13.79,7.01,21.39-2,4.24-5.28,7.04-9.83,8.42-4.55,1.37-9.18.95-13.89-1.28-2.95-1.39-6.02-3.4-9.24-6.03l-4.01-3.27c-1.63-1.31-3.04-2.24-4.22-2.8-1.58-.75-3.44-1.01-5.6-.8l-.05-.69c5.49-3.32,9.91-6.86,13.27-10.61l.6.53c-1.38,4.31-1.24,8.23.41,11.77,1.65,3.53,4.67,6.34,9.06,8.41,3.46,1.64,6.59,2.14,9.39,1.5,2.8-.64,4.84-2.31,6.12-5.03,1.48-3.13,1.28-6.38-.6-9.77-1.36-2.41-4.91-5.73-10.65-9.97-4.43-3.27-7.22-6.53-8.37-9.79-1.15-3.26-.78-6.87,1.09-10.82,1.93-4.08,4.96-6.7,9.1-7.86,4.14-1.16,8.55-.62,13.26,1.6,3.03,1.43,6.3,3.64,9.81,6.63,1.64,1.41,2.91,2.33,3.82,2.75,1.27.6,2.86.82,4.77.64l.34.39ZM457.25,45.05l-.62.42c-1.9,1.28-3.61,2.56-5.13,3.83-3.6,2.94-5.63,4.58-6.07,4.91l-.32.18-.75-.83.32-.27c1.56-1.35,3.69-3.06,6.41-5.13l5.05-3.87.34-.22.77.98h0ZM442.28,47.41c-1.41-4.37-3.75-7.32-7-8.86-1.97-.93-3.86-1.13-5.69-.61-1.83.53-3.16,1.67-3.99,3.43-.9,1.91-.53,4.49,1.13,7.74l.22.34-.34.22c-2.69-3.14-3.35-6.16-1.98-9.05.95-2.02,2.45-3.31,4.5-3.9,2.04-.58,4.23-.32,6.56.78,2.22,1.05,3.94,2.44,5.16,4.17,1.22,1.73,1.81,3.63,1.78,5.71l-.34.03ZM443.92,67.02c2.26,4.32,2.29,8.8.1,13.43-2.33,4.94-6.22,8.21-11.66,9.83-5.44,1.61-10.9,1.13-16.38-1.46-2.79-1.32-5.17-2.8-7.15-4.43l-5.49-4.45c-1.27-1.04-2.74-1.96-4.39-2.74-1.47-.7-2.97-1.04-4.49-1.03l.06-1.34c1.64.01,3.16.35,4.55,1.01,1.55.73,3.21,1.8,4.98,3.21l5.29,4.26c2.11,1.69,4.48,3.16,7.11,4.41,5.17,2.44,10.35,2.87,15.54,1.3,5.19-1.58,8.89-4.71,11.1-9.38,1.87-3.95,2.11-8.08.72-12.37l.11-.23ZM411.04,65.13c-1.24,5.1-.24,9.61,3,13.51l-.15.31c-4.15-3.67-5.48-8.37-3.99-14.12l1.14.3ZM412.14,50.28l.97,1.36c.13,1.93,2.03,4.37,5.68,7.34l5.51,4.5c3.74,3.06,6.13,5.31,7.18,6.74,1.05,1.43,1.5,3.06,1.36,4.89l-.34.03c-.53-1.89-1.32-3.47-2.38-4.73-1.06-1.26-3.31-3.26-6.73-5.98-4.97-3.93-8.19-6.82-9.66-8.67-1.47-1.85-2-3.67-1.59-5.47ZM488.26,61.8l15.37,13.04-8.14.58-11.98,14.12c.43.51.96,1.08,1.6,1.69l11.87-13.99,6.56-.51.16,1.14-6.2.48-11.57,13.64,1,1.01c1.55,1.58,3.11,3.03,4.68,4.36,2.27,1.92,4.31,3.47,6.13,4.64l12.76-15.04-.88-7.05,15.11,12.81-8.2.52-28.9,34.07.96,6.89-15.04-12.76,7.72-.02,11.76-13.86c-2.2-1.12-4.27-2.5-6.21-4.15-1.83-1.55-3.65-3.26-5.44-5.12l-.43-.42-11.73,13.83.12,10.79-16.9-14.34-.1-1.6,15.96,13.53-.31-8.64,12.76-15.04.89.87c2.69,2.66,4.68,4.54,5.97,5.62,2.09,1.78,4.15,3.04,6.18,3.78l1-1.18c-2.31-1.43-4.82-3.31-7.55-5.62-1.46-1.24-2.5-2.18-3.12-2.81l-3.05-3.1c-.11-.13-.34-.37-.69-.7l-13.76,16.22,1.19,7.08-15.1-12.81,7.63-.11,12.12-14.29c-1.83-1.55-3.9-2.07-6.21-1.56l-.41-.91c2.61-.51,5.05.03,7.31,1.65l1.03-1.21c-2.44-2.07-5.16-2.78-8.15-2.13l-.21-.74c3.95-2.05,7.61-2.13,10.99-.24l12.48-14.71-1-7.71ZM524.54,95.72l-6.08.41-28.29,33.35.16,10.81-16.97-14.39-.07-1.58,15.92,13.51-.19-8.66,28.9-34.07,6.68-.52-.06,1.13ZM562.74,138.37c3.92,5.74,4.87,11.8,2.87,18.2-2,6.4-6.64,12.08-13.91,17.04-6.87,4.69-13.5,6.73-19.9,6.13s-11.54-3.76-15.44-9.47c-3.08-4.51-4.38-9.51-3.9-14.99.72-8.07,5.25-14.95,13.58-20.64,7.13-4.87,14.01-6.96,20.62-6.29,6.62.67,11.98,4.01,16.07,10.01ZM559.69,140.45c-5.44-7.98-15.18-7.19-29.21,2.38-12.96,8.84-16.76,17.2-11.39,25.06,2.5,3.66,6.11,5.27,10.86,4.84,4.74-.43,10.42-2.9,17.03-7.41,7.49-5.11,12.07-9.59,13.77-13.45,1.75-4.03,1.4-7.84-1.05-11.43ZM559.55,151.65l-.06-.84c-.3-3.12-1.09-5.62-2.38-7.51-4.24-6.21-12.46-5.15-24.67,3.18-8.93,6.09-13.53,12.05-13.8,17.88l-.57-.08c.07-3.5,1.12-6.69,3.16-9.55,2.04-2.87,5.39-5.88,10.04-9.06,13.1-8.94,22.01-9.96,26.71-3.07,2.14,3.14,2.66,6.16,1.56,9.06ZM568.64,150.9c.68,4.49-.29,9.06-2.89,13.71-2.61,4.65-6.5,8.74-11.67,12.27-7.6,5.19-15.06,7.45-22.37,6.78-7.31-.67-13.11-4.15-17.39-10.43-2.74-4.01-3.94-8.69-3.61-14.04l.18-.12c-.15,4.39,1.28,8.8,4.29,13.21,4.04,5.93,9.59,9.27,16.65,10.02,7.06.75,14.06-1.24,21-5.97,5.17-3.53,9.1-7.48,11.78-11.86,2.69-4.38,3.9-8.81,3.64-13.31l.39-.26ZM592.77,192.39l6.33,18.18c2.69,7.72,3.53,13.58,2.54,17.59-1.23,5.09-4.21,8.46-8.96,10.11-2.89,1.01-5.68,1.08-8.37.23-2.68-.85-5-2.54-6.94-5.07-1.94-2.53-4-6.92-6.17-13.15l-1.73-4.98-19.6,6.82-2.73,6.49-6.56-18.83,6.7,3.98,16.24-5.65c-.09-.33-.15-.57-.2-.7-.68-1.94-1.74-3.66-3.2-5.15l.6-.62c1.66,1.45,2.73,2.89,3.23,4.32l.51,1.46.15.31,1.98-.69c-.13-.65-.24-1.08-.32-1.3-1.01-2.89-2.51-4.95-4.52-6.19l.47-.62c3.6.6,6.03,2.71,7.3,6.36l.23.65,19.84-6.91,3.18-6.64ZM593.2,207.04l-20.29,7.06.18.53.32,1.07c.04.1.12.28.23.51l18.06-6.29,1.55,4.46c1.2,3.45,1.75,6,1.63,7.62-.11,1.63-.96,3.28-2.53,4.94,1.03-1.48,1.56-3.06,1.59-4.75.03-1.69-.43-3.9-1.38-6.62l-1.45-4.17-17.09,5.95c1.86,5.35,4.01,9,6.44,10.95,2.44,1.95,5.33,2.35,8.67,1.18,3.75-1.3,6.09-3.37,7.02-6.19.93-2.82.53-6.7-1.19-11.64-.44-1.27-1.03-2.8-1.78-4.6ZM601.96,232.73c-.24,1.93-1.2,3.75-2.89,5.45-1.69,1.71-3.83,3.01-6.42,3.92-5.86,2.04-10.86,1.24-15-2.4-3.14-2.75-6.15-8.27-9.03-16.56-.48-1.38-.86-2.55-1.13-3.51l-16.72,5.82-5.32,8.98-7.06-20.28.71-1.48,6.64,19.07,4.19-7.27,18.26-6.36c.68,2.4,1.48,4.92,2.4,7.56,2.43,6.96,5.46,11.71,9.09,14.23,3.63,2.52,7.99,2.89,13.06,1.13,2.11-.73,3.82-1.69,5.15-2.88,1.33-1.19,2.69-2.99,4.09-5.42"/>
        <path class="cls-3" d="M268.36,509.18l-1.34-.04c-.02-1.09-.04-2.06-.04-2.91s.04-1.63.12-2.26c.08-.63.25-1.14.51-1.55.26-.41.63-.7,1.12-.89.49-.19,1.15-.28,1.96-.28.51,0,1.1.01,1.77.04.67.03,1.37.05,2.11.08.74.03,1.5.05,2.28.08.78.03,1.54.04,2.27.04,1.23,0,2.31,0,3.25,0,.94,0,1.77-.01,2.51-.02s1.37-.02,1.92-.04c.55-.02,1.05-.05,1.51-.08.46-.04.88-.08,1.27-.13.39-.05.79-.11,1.2-.18.15.43.23.79.23,1.07,0,.6-.25,1.05-.75,1.37-.5.32-1.25.47-2.23.47-.93,0-2.03-.06-3.29-.17-1.26-.11-2.68-.22-4.26-.33-.02,1.34-.06,2.76-.1,4.28-.04,1.52-.08,3.09-.13,4.71s-.09,3.28-.14,4.97-.1,3.39-.16,5.08c-.05,1.69-.1,3.37-.16,5.03-.05,1.66-.1,3.27-.14,4.82l-3.21.41-.25-.03c.07-1.73.14-3.38.2-4.96.06-1.58.12-3.14.18-4.66.05-1.53.11-3.05.15-4.57.04-1.52.08-3.08.11-4.69.03-1.61.05-3.28.07-5.02.02-1.74.03-3.59.03-5.55-.51-.02-1.04-.03-1.57-.05-.53-.01-1.07-.02-1.62-.02s-1.07,0-1.54.03c-.48.02-.92.08-1.31.19-.4.11-.76.28-1.07.51-.32.23-.58.55-.8.97-.22.42-.38.96-.49,1.6-.11.65-.17,1.45-.17,2.38v.31"/>
        <path class="cls-3" d="M303.42,525.14c.69-2.29,1.43-4.22,2.21-5.81.78-1.59,1.58-2.88,2.39-3.87.8-.99,1.61-1.71,2.42-2.15.8-.44,1.57-.66,2.3-.66.51,0,.99.1,1.46.29.47.19.89.5,1.25.9.36.41.66.93.87,1.57.22.64.32,1.41.32,2.3,0,.27-.02.64-.05,1.1-.03.46-.07.98-.12,1.56-.04.57-.1,1.18-.16,1.81s-.11,1.26-.16,1.87c-.04.61-.08,1.2-.11,1.75-.03.55-.05,1.02-.05,1.42,0,.7.03,1.28.09,1.72.06.44.16.79.29,1.05.14.26.31.43.54.53.23.1.5.14.83.14.47,0,.96-.07,1.46-.2s1.02-.31,1.53-.55l.25.7c-.33.26-.74.53-1.23.8-.5.27-1.02.52-1.56.75-.54.23-1.09.41-1.63.55-.54.14-1.02.21-1.44.21-.49,0-.87-.13-1.15-.39-.28-.26-.49-.62-.63-1.07-.14-.45-.23-.98-.27-1.58-.04-.6-.06-1.26-.06-1.95,0-.84.03-1.71.09-2.6.06-.89.12-1.75.19-2.57.07-.82.13-1.57.19-2.25.06-.68.09-1.23.09-1.65,0-1-.19-1.75-.58-2.26-.39-.5-.91-.75-1.57-.75-.52,0-1.06.22-1.65.66-.58.44-1.16,1.05-1.73,1.82-.58.77-1.13,1.68-1.66,2.74-.53,1.05-1.01,2.19-1.44,3.41-.43,1.22-.78,2.5-1.06,3.84s-.46,2.67-.53,4.01l-2.89.35h-.22c.05-1.08.12-2.26.19-3.54.07-1.29.14-2.65.22-4.1.08-1.44.16-2.95.24-4.52.09-1.57.17-3.16.26-4.79.09-1.63.18-3.26.26-4.92.09-1.65.18-3.29.26-4.9.09-1.61.17-3.19.25-4.73.08-1.54.16-3.02.23-4.43,0-.22.07-.4.19-.56.12-.16.27-.28.46-.38.18-.1.39-.17.63-.21.23-.04.48-.07.73-.07.54,0,1.11.14,1.71.43-.21,1.84-.39,3.53-.55,5.07-.16,1.54-.31,2.97-.44,4.28-.13,1.31-.25,2.54-.35,3.68-.11,1.14-.2,2.23-.28,3.27s-.17,2.06-.24,3.05c-.07.99-.14,2-.22,3.03-.07,1.02-.15,2.09-.22,3.2-.08,1.11-.16,2.29-.25,3.57h.08"/>
        <path class="cls-3" d="M344.08,528.13c.05.03.12.06.21.11.09.05.16.1.24.16s.14.12.19.19c.05.07.08.13.08.2,0,.04-.01.07-.04.11-.5.7-1.05,1.32-1.63,1.84-.58.52-1.19.95-1.82,1.3-.63.35-1.27.6-1.92.77-.65.17-1.29.25-1.92.25-1.08,0-2.08-.22-2.98-.66-.9-.44-1.68-1.05-2.33-1.81-.65-.77-1.16-1.67-1.52-2.7-.37-1.03-.55-2.14-.55-3.32,0-.97.1-1.93.31-2.9.21-.97.52-1.89.92-2.76.4-.88.89-1.69,1.47-2.44.58-.75,1.24-1.41,1.97-1.96.74-.56,1.54-.99,2.42-1.31.88-.32,1.83-.47,2.84-.47.67,0,1.31.09,1.91.27.61.18,1.13.44,1.59.78.46.34.82.76,1.09,1.25.27.5.4,1.06.4,1.69,0,.92-.3,1.72-.9,2.41-.6.69-1.43,1.27-2.49,1.75s-2.3.86-3.73,1.16c-1.43.29-2.97.51-4.64.66v.23c0,1.16.15,2.21.44,3.17.29.96.7,1.78,1.21,2.46.51.68,1.12,1.21,1.81,1.59.69.38,1.44.57,2.25.57s1.64-.2,2.5-.6,1.72-1.05,2.6-1.96ZM341.53,517.25c0-.42-.07-.8-.21-1.16-.14-.36-.33-.68-.58-.94-.25-.27-.54-.48-.88-.63-.34-.15-.71-.23-1.11-.23-.59,0-1.12.1-1.6.31s-.91.49-1.29.85c-.38.36-.71.77-1,1.25-.29.47-.54.98-.74,1.51-.2.53-.37,1.08-.49,1.64-.13.56-.22,1.11-.27,1.64,1.28-.09,2.43-.25,3.45-.47,1.02-.22,1.87-.51,2.57-.85.7-.35,1.24-.76,1.6-1.25.37-.48.55-1.04.55-1.66"/>
        <path class="cls-3" d="M24.18,397.57c0,.47-.02.88-.06,1.23-.04.35-.11.65-.21.88-.1.24-.21.41-.34.51-.13.1-.27.16-.43.16H4.84c-.45,0-.88-.2-1.28-.61-.4-.4-.6-1.11-.6-2.13v-45.05c0-1.02.2-1.73.6-2.13.4-.4.83-.6,1.28-.6h18.1c.16,0,.3.05.43.16.13.1.23.27.31.51.08.24.14.53.19.88.05.35.07.79.07,1.31,0,.47-.02.88-.07,1.23-.05.35-.11.64-.19.86-.08.22-.18.38-.31.49-.13.1-.27.16-.43.16h-14.92v15.85h12.8c.16,0,.3.06.43.18.13.11.24.28.32.49.09.21.15.49.19.86.04.37.06.8.06,1.29,0,.47-.02.87-.06,1.21-.04.34-.1.61-.19.82-.09.21-.2.36-.32.45-.13.09-.27.14-.43.14h-12.8v18.08h15.12c.16,0,.3.05.43.16.13.1.24.26.34.49.1.22.17.51.21.86.04.35.06.79.06,1.31"/>
        <path class="cls-3" d="M56.56,386.17c0,2.37-.33,4.48-.99,6.32-.66,1.85-1.57,3.42-2.74,4.71-1.17,1.29-2.55,2.26-4.13,2.91s-3.29.98-5.12.98c-1.28,0-2.46-.14-3.55-.43-1.09-.29-2.06-.64-2.92-1.05s-1.57-.85-2.15-1.29c-.58-.44-.98-.82-1.21-1.13-.23-.31-.39-.71-.5-1.19s-.16-1.13-.16-1.93c0-.57.02-1.05.06-1.43.04-.38.1-.68.18-.92.08-.23.18-.4.29-.49s.26-.14.41-.14c.27,0,.66.22,1.16.67s1.15.92,1.93,1.44c.79.52,1.73,1.01,2.84,1.46,1.11.46,2.39.68,3.85.68,1.1,0,2.11-.19,3.02-.58.91-.39,1.7-.95,2.36-1.66.66-.71,1.16-1.59,1.52-2.63.35-1.04.53-2.23.53-3.55,0-1.43-.25-2.65-.74-3.67-.49-1.02-1.14-1.91-1.95-2.67s-1.73-1.47-2.76-2.11c-1.03-.64-2.09-1.29-3.17-1.95-1.08-.66-2.13-1.4-3.15-2.2-1.02-.81-1.94-1.76-2.74-2.85-.8-1.09-1.46-2.38-1.96-3.85-.5-1.47-.75-3.23-.75-5.29s.29-3.99.87-5.64c.58-1.65,1.39-3.04,2.42-4.16,1.03-1.12,2.26-1.97,3.69-2.56,1.42-.59,2.96-.88,4.61-.88.84,0,1.7.1,2.55.29.85.19,1.66.46,2.42.78.76.32,1.43.69,2.02,1.09.59.4.98.73,1.17.98.19.25.31.44.37.59.06.14.11.32.15.54.04.22.07.49.09.8.02.31.03.71.03,1.21,0,.47-.01.88-.04,1.25-.03.36-.07.67-.13.92-.06.25-.14.43-.25.55-.11.11-.23.18-.37.18-.22,0-.55-.18-1.02-.55-.46-.36-1.03-.77-1.7-1.23-.67-.46-1.46-.87-2.37-1.25-.91-.38-1.94-.57-3.08-.57-1.06,0-1.99.19-2.77.57-.79.38-1.44.88-1.95,1.5-.51.62-.89,1.37-1.15,2.23-.26.86-.38,1.77-.38,2.73,0,1.4.25,2.61.74,3.63.49,1.02,1.15,1.91,1.96,2.69.81.78,1.74,1.5,2.79,2.15,1.04.65,2.1,1.31,3.18,1.97,1.08.66,2.14,1.39,3.18,2.19,1.04.79,1.97,1.73,2.79,2.81s1.47,2.36,1.98,3.83.75,3.21.75,5.21"/>
        <path class="cls-3" d="M91.54,352.72c0,.49-.02.92-.06,1.29-.04.37-.1.66-.19.88-.09.22-.2.39-.32.49-.13.1-.27.16-.43.16h-10.73v43.8c0,.21-.04.39-.12.55-.08.16-.22.28-.41.37s-.46.17-.78.24c-.32.06-.73.09-1.22.09s-.87-.03-1.21-.09c-.33-.07-.6-.14-.8-.24s-.33-.21-.41-.37c-.08-.16-.12-.34-.12-.55v-43.8h-10.73c-.16,0-.3-.05-.43-.16-.13-.11-.23-.27-.31-.49-.08-.22-.14-.51-.19-.88-.05-.36-.07-.79-.07-1.29s.02-.93.07-1.31c.05-.38.11-.68.19-.92.08-.23.18-.4.31-.51.13-.1.27-.16.43-.16h26.53c.16,0,.3.05.43.16.13.1.24.27.32.51.09.24.15.54.19.92.04.38.06.82.06,1.31"/>
        <path class="cls-3" d="M130.61,374.34c0,4.37-.42,8.19-1.27,11.46-.85,3.27-2.08,5.97-3.7,8.12s-3.61,3.75-5.97,4.82c-2.36,1.07-5.17,1.6-8.43,1.6h-8.08c-.45,0-.88-.2-1.28-.61-.4-.4-.6-1.11-.6-2.13v-45.05c0-1.02.2-1.73.6-2.13.4-.4.83-.6,1.28-.6h8.64c3.3,0,6.09.56,8.37,1.7,2.28,1.13,4.19,2.76,5.73,4.88,1.54,2.12,2.71,4.69,3.51,7.71.8,3.02,1.19,6.43,1.19,10.23ZM125.28,374.62c0-2.74-.26-5.28-.77-7.63-.51-2.36-1.31-4.39-2.4-6.11-1.09-1.72-2.47-3.06-4.14-4.02-1.67-.96-3.82-1.44-6.46-1.44h-5.16v39.31h5.22c2.44,0,4.49-.4,6.16-1.21,1.67-.81,3.07-2.04,4.19-3.71,1.12-1.67,1.96-3.75,2.52-6.27.56-2.51.84-5.48.84-8.92"/>
        <path class="cls-3" d="M493.01,397.69c0,.49-.03.91-.1,1.25-.07.34-.15.61-.26.82-.11.21-.24.36-.38.45-.14.09-.29.14-.45.14h-22.23c-.15,0-.3-.05-.43-.14-.13-.09-.26-.24-.38-.45-.12-.21-.21-.48-.28-.82-.07-.34-.1-.76-.1-1.25,0-.47.03-.87.1-1.21.07-.34.15-.62.25-.84.1-.22.22-.39.36-.51s.3-.18.48-.18h8.88v-38.42l-8.22,5.82c-.41.26-.75.42-1,.47-.25.05-.45,0-.61-.18-.15-.17-.25-.45-.31-.84-.05-.39-.08-.89-.08-1.48,0-.44.02-.82.05-1.13.03-.31.08-.57.15-.78.07-.21.16-.39.28-.55.12-.16.28-.31.48-.47l9.8-7.46c.09-.08.2-.14.33-.19.13-.05.3-.1.49-.16.2-.05.43-.08.69-.1.26-.01.59-.02.99-.02.52,0,.96.03,1.31.08.35.05.62.12.82.21.2.09.33.21.4.35s.1.29.1.45v44.39h7.69c.18,0,.34.06.49.18s.28.29.38.51c.1.22.17.5.23.84.05.34.08.74.08,1.21"/>
        <path class="cls-3" d="M532.09,373.09c0,2.19-.11,4.4-.33,6.64-.22,2.24-.59,4.39-1.12,6.46-.52,2.07-1.23,4.01-2.12,5.81-.89,1.81-2,3.39-3.35,4.75-1.35,1.35-2.95,2.41-4.8,3.18-1.85.77-4.01,1.15-6.46,1.15-.95,0-1.86-.07-2.75-.22-.89-.14-1.69-.32-2.4-.52-.71-.21-1.31-.43-1.79-.67-.48-.23-.83-.47-1.05-.7-.22-.24-.38-.55-.47-.96-.1-.4-.15-.94-.15-1.62,0-.57.02-1.03.05-1.37.03-.34.08-.6.15-.78s.16-.31.28-.37c.12-.07.27-.1.44-.1.24,0,.58.1,1.02.29.44.2.99.41,1.66.64.67.24,1.45.45,2.35.65.9.19,1.91.29,3.03.29,2.13,0,3.95-.49,5.47-1.46,1.53-.98,2.77-2.28,3.73-3.92.96-1.64,1.69-3.54,2.17-5.7.48-2.16.75-4.44.79-6.83-1.16.81-2.55,1.52-4.18,2.15-1.62.62-3.48.94-5.59.94-2.37,0-4.36-.39-5.97-1.15-1.61-.77-2.9-1.81-3.88-3.14-.97-1.33-1.68-2.9-2.1-4.72-.43-1.82-.64-3.81-.64-5.97s.27-4.37.82-6.38c.55-2.02,1.4-3.79,2.57-5.33,1.16-1.53,2.64-2.76,4.44-3.67,1.8-.91,3.95-1.37,6.44-1.37,1.78,0,3.35.27,4.72.8,1.37.53,2.56,1.3,3.57,2.3,1.01,1,1.86,2.21,2.56,3.63.7,1.42,1.27,3.03,1.69,4.82.43,1.8.73,3.74.92,5.83.18,2.1.28,4.3.28,6.62ZM526.33,372.35c0-3.33-.19-6.14-.56-8.41-.37-2.28-.92-4.12-1.64-5.53-.72-1.4-1.61-2.42-2.67-3.04-1.05-.63-2.27-.94-3.65-.94s-2.64.31-3.65.92c-1.01.61-1.83,1.43-2.48,2.46-.65,1.03-1.12,2.19-1.43,3.49-.31,1.3-.46,2.64-.46,4.02,0,1.53.14,2.94.41,4.22.27,1.27.72,2.36,1.33,3.24.61.89,1.41,1.57,2.4,2.05.99.48,2.2.72,3.65.72,1.64,0,3.23-.29,4.77-.88s2.86-1.36,3.98-2.32"/>
        <path class="cls-3" d="M570.93,373.09c0,2.19-.11,4.4-.33,6.64-.22,2.24-.59,4.39-1.12,6.46-.53,2.07-1.23,4.01-2.12,5.81-.89,1.81-2.01,3.39-3.35,4.75-1.35,1.35-2.95,2.41-4.8,3.18s-4.01,1.15-6.46,1.15c-.94,0-1.86-.07-2.74-.22-.89-.14-1.69-.32-2.4-.52-.71-.21-1.31-.43-1.79-.67-.48-.23-.83-.47-1.05-.7-.22-.24-.38-.55-.48-.96-.1-.4-.15-.94-.15-1.62,0-.57.01-1.03.05-1.37.03-.34.08-.6.15-.78.06-.18.16-.31.28-.37.12-.07.27-.1.45-.1.24,0,.58.1,1.02.29.44.2.99.41,1.66.64.67.24,1.45.45,2.35.65.9.19,1.9.29,3.03.29,2.12,0,3.95-.49,5.47-1.46,1.52-.98,2.77-2.28,3.73-3.92.97-1.64,1.69-3.54,2.17-5.7.48-2.16.75-4.44.79-6.83-1.16.81-2.55,1.52-4.17,2.15-1.62.62-3.49.94-5.59.94-2.37,0-4.36-.39-5.97-1.15-1.61-.77-2.9-1.81-3.88-3.14-.97-1.33-1.68-2.9-2.1-4.72-.43-1.82-.64-3.81-.64-5.97s.27-4.37.82-6.38c.55-2.02,1.4-3.79,2.56-5.33,1.16-1.53,2.64-2.76,4.44-3.67,1.8-.91,3.94-1.37,6.44-1.37,1.78,0,3.35.27,4.72.8,1.37.53,2.56,1.3,3.57,2.3,1.01,1,1.86,2.21,2.57,3.63.7,1.42,1.26,3.03,1.69,4.82.43,1.8.74,3.74.92,5.83.19,2.1.28,4.3.28,6.62ZM565.18,372.35c0-3.33-.18-6.14-.56-8.41-.37-2.28-.92-4.12-1.65-5.53-.72-1.4-1.61-2.42-2.66-3.04-1.05-.63-2.27-.94-3.65-.94s-2.64.31-3.65.92c-1.01.61-1.84,1.43-2.48,2.46-.65,1.03-1.12,2.19-1.43,3.49-.31,1.3-.46,2.64-.46,4.02,0,1.53.14,2.94.41,4.22.27,1.27.72,2.36,1.33,3.24.61.89,1.41,1.57,2.4,2.05.99.48,2.2.72,3.65.72,1.65,0,3.24-.29,4.77-.88s2.86-1.36,3.98-2.32"/>
        <path class="cls-3" d="M609.45,397.45c0,.47-.02.89-.08,1.25-.06.36-.13.67-.23.92-.1.25-.23.43-.39.54-.17.12-.35.18-.54.18h-23.51c-.31,0-.58-.05-.8-.14-.23-.09-.43-.24-.59-.45-.16-.21-.28-.51-.36-.9-.08-.39-.11-.87-.11-1.45,0-.52.02-.97.05-1.37.03-.39.1-.74.22-1.03.11-.3.25-.6.42-.9.17-.3.39-.62.66-.96l8.51-10.38c1.96-2.39,3.54-4.54,4.73-6.44,1.19-1.9,2.1-3.63,2.74-5.19.64-1.56,1.07-2.98,1.27-4.25.2-1.27.31-2.47.31-3.59s-.16-2.18-.48-3.18c-.32-1-.77-1.88-1.38-2.63-.6-.75-1.35-1.35-2.25-1.79-.9-.44-1.95-.67-3.12-.67-1.38,0-2.62.22-3.71.67-1.1.44-2.06.92-2.89,1.44-.82.52-1.52,1-2.07,1.45-.55.44-.97.66-1.24.66-.16,0-.3-.05-.42-.16-.12-.1-.23-.27-.31-.51-.08-.24-.14-.55-.18-.94-.04-.39-.07-.86-.07-1.41,0-.39.01-.73.03-1.01.02-.29.06-.53.12-.74.05-.21.12-.4.21-.59.09-.18.26-.41.53-.69.26-.27.72-.64,1.37-1.11.65-.47,1.46-.93,2.43-1.39.97-.46,2.05-.84,3.22-1.15,1.17-.31,2.4-.47,3.7-.47,2.06,0,3.87.34,5.41,1.03,1.54.69,2.83,1.63,3.85,2.83,1.02,1.19,1.78,2.59,2.29,4.17.5,1.59.76,3.28.76,5.08,0,1.61-.12,3.22-.36,4.82-.24,1.6-.75,3.33-1.53,5.19-.78,1.86-1.9,3.93-3.37,6.21-1.47,2.28-3.42,4.9-5.85,7.87l-6.74,8.36h18.51c.18,0,.34.06.51.18.16.12.3.29.43.52.12.24.21.53.26.88.05.35.08.76.08,1.23"/>
        <path class="cls-1" d="M131.01,335.66H2.55v3.38h128.46v-3.38"/>
        <path class="cls-1" d="M603.08,335.66h-128.46v3.38h128.46v-3.38"/>
        <path class="cls-1" d="M131.01,408.61H2.55v3.38h128.46v-3.38"/>
        <path class="cls-1" d="M603.08,408.61h-128.46v3.38h128.46v-3.38"/>
      </g>
    </g>
  </g>
</svg>